<svg width="169" height="28" viewBox="0 0 169 28" fill="none" xmlns="http://www.w3.org/2000/svg">
<path d="M0.242898 5.9826V1.54545H21.1484V5.9826H13.3555V27H8.03587V5.9826H0.242898ZM22.5094 27V7.90909H27.6426V11.2401H27.8414C28.1895 10.0552 28.7736 9.16027 29.5939 8.5554C30.4142 7.94223 31.3588 7.63565 32.4277 7.63565C32.6929 7.63565 32.9788 7.65222 33.2853 7.68537C33.5919 7.71851 33.8612 7.76409 34.0932 7.82209V12.5202C33.8446 12.4457 33.5008 12.3794 33.0616 12.3214C32.6225 12.2634 32.2206 12.2344 31.856 12.2344C31.0771 12.2344 30.3811 12.4042 29.7679 12.744C29.1631 13.0754 28.6825 13.5394 28.3262 14.136C27.9782 14.7326 27.8042 15.4203 27.8042 16.1992V27H22.5094ZM44.6423 27.3729C42.6785 27.3729 40.9882 26.9751 39.5713 26.1797C38.1627 25.3759 37.0772 24.2408 36.3149 22.7741C35.5526 21.2992 35.1714 19.555 35.1714 17.5415C35.1714 15.5778 35.5526 13.8543 36.3149 12.3711C37.0772 10.8879 38.1502 9.73201 39.534 8.90341C40.926 8.07481 42.5584 7.66051 44.431 7.66051C45.6905 7.66051 46.863 7.86352 47.9484 8.26953C49.0422 8.66726 49.9951 9.26799 50.8071 10.0717C51.6274 10.8755 52.2654 11.8864 52.7211 13.1044C53.1769 14.3142 53.4047 15.7311 53.4047 17.3551V18.8093H37.2844V15.5281H48.4207C48.4207 14.7657 48.255 14.0904 47.9236 13.5021C47.5921 12.9138 47.1323 12.454 46.5439 12.1225C45.9639 11.7828 45.2886 11.6129 44.518 11.6129C43.7143 11.6129 43.0017 11.7994 42.3802 12.1722C41.7671 12.5368 41.2865 13.0298 40.9385 13.6513C40.5905 14.2644 40.4123 14.948 40.404 15.7021V18.8217C40.404 19.7663 40.578 20.5825 40.926 21.2702C41.2823 21.958 41.7836 22.4883 42.43 22.8612C43.0763 23.234 43.8427 23.4205 44.7293 23.4205C45.3176 23.4205 45.8562 23.3376 46.3451 23.1719C46.834 23.0062 47.2524 22.7576 47.6004 22.4261C47.9484 22.0947 48.2136 21.6887 48.3959 21.2081L53.2929 21.5312C53.0443 22.7079 52.5347 23.7353 51.7641 24.6136C51.0018 25.4837 50.0158 26.1631 48.806 26.652C47.6046 27.1326 46.2166 27.3729 44.6423 27.3729ZM56.86 27V7.90909H62.1547V27H56.86ZM59.5198 5.44815C58.7326 5.44815 58.0573 5.18714 57.4939 4.66513C56.9387 4.13482 56.6611 3.50095 56.6611 2.76349C56.6611 2.03433 56.9387 1.40874 57.4939 0.886719C58.0573 0.356415 58.7326 0.0912629 59.5198 0.0912629C60.307 0.0912629 60.9781 0.356415 61.5333 0.886719C62.0967 1.40874 62.3785 2.03433 62.3785 2.76349C62.3785 3.50095 62.0967 4.13482 61.5333 4.66513C60.9781 5.18714 60.307 5.44815 59.5198 5.44815ZM71.6909 15.9631V27H66.3961V7.90909H71.4423V11.2773H71.666C72.0886 10.167 72.7971 9.28871 73.7914 8.6424C74.7857 7.98781 75.9913 7.66051 77.4082 7.66051C78.734 7.66051 79.8899 7.95052 80.8759 8.53054C81.8619 9.11056 82.6284 9.93916 83.1752 11.0163C83.7221 12.0852 83.9956 13.3613 83.9956 14.8445V27H78.7008V15.7891C78.7091 14.6207 78.4108 13.7093 77.8059 13.0547C77.2011 12.3918 76.3683 12.0604 75.3077 12.0604C74.5951 12.0604 73.9654 12.2137 73.4185 12.5202C72.8799 12.8268 72.4573 13.2743 72.1507 13.8626C71.8525 14.4426 71.6992 15.1428 71.6909 15.9631ZM96.8689 27.3729C94.9051 27.3729 93.2148 26.9751 91.7979 26.1797C90.3892 25.3759 89.3038 24.2408 88.5415 22.7741C87.7791 21.2992 87.398 19.555 87.398 17.5415C87.398 15.5778 87.7791 13.8543 88.5415 12.3711C89.3038 10.8879 90.3768 9.73201 91.7606 8.90341C93.1526 8.07481 94.7849 7.66051 96.6576 7.66051C97.9171 7.66051 99.0895 7.86352 100.175 8.26953C101.269 8.66726 102.222 9.26799 103.034 10.0717C103.854 10.8755 104.492 11.8864 104.948 13.1044C105.403 14.3142 105.631 15.7311 105.631 17.3551V18.8093H89.5109V15.5281H100.647C100.647 14.7657 100.482 14.0904 100.15 13.5021C99.8187 12.9138 99.3588 12.454 98.7705 12.1225C98.1905 11.7828 97.5152 11.6129 96.7446 11.6129C95.9408 11.6129 95.2282 11.7994 94.6068 12.1722C93.9936 12.5368 93.5131 13.0298 93.165 13.6513C92.817 14.2644 92.6389 14.948 92.6306 15.7021V18.8217C92.6306 19.7663 92.8046 20.5825 93.1526 21.2702C93.5089 21.958 94.0102 22.4883 94.6565 22.8612C95.3028 23.234 96.0693 23.4205 96.9559 23.4205C97.5442 23.4205 98.0828 23.3376 98.5716 23.1719C99.0605 23.0062 99.479 22.7576 99.827 22.4261C100.175 22.0947 100.44 21.6887 100.622 21.2081L105.519 21.5312C105.271 22.7079 104.761 23.7353 103.991 24.6136C103.228 25.4837 102.242 26.1631 101.033 26.652C99.8311 27.1326 98.4432 27.3729 96.8689 27.3729ZM112.181 27.3232C111.361 27.3232 110.657 27.0331 110.068 26.4531C109.488 25.8648 109.198 25.1605 109.198 24.3402C109.198 23.5282 109.488 22.8321 110.068 22.2521C110.657 21.6721 111.361 21.3821 112.181 21.3821C112.977 21.3821 113.673 21.6721 114.269 22.2521C114.866 22.8321 115.164 23.5282 115.164 24.3402C115.164 24.8871 115.023 25.3884 114.742 25.8441C114.468 26.2915 114.108 26.652 113.66 26.9254C113.213 27.1906 112.72 27.3232 112.181 27.3232ZM119.511 27V7.90909H124.558V11.2773H124.781C125.179 10.1587 125.842 9.27628 126.77 8.62997C127.698 7.98366 128.808 7.66051 130.101 7.66051C131.41 7.66051 132.525 7.98781 133.444 8.6424C134.364 9.28871 134.977 10.167 135.284 11.2773H135.483C135.872 10.1836 136.576 9.30942 137.596 8.65483C138.623 7.99195 139.837 7.66051 141.237 7.66051C143.019 7.66051 144.465 8.2281 145.575 9.36328C146.694 10.4902 147.253 12.0894 147.253 14.1609V27H141.971V15.2049C141.971 14.1443 141.689 13.3488 141.125 12.8185C140.562 12.2882 139.858 12.0231 139.012 12.0231C138.051 12.0231 137.301 12.3297 136.763 12.9428C136.224 13.5477 135.955 14.3473 135.955 15.3416V27H130.822V15.093C130.822 14.1567 130.552 13.411 130.014 12.8558C129.484 12.3007 128.783 12.0231 127.913 12.0231C127.325 12.0231 126.795 12.1722 126.322 12.4705C125.858 12.7605 125.49 13.1707 125.216 13.701C124.943 14.223 124.806 14.8362 124.806 15.5405V27H119.511ZM160.135 27.3729C158.172 27.3729 156.481 26.9751 155.064 26.1797C153.656 25.3759 152.57 24.2408 151.808 22.7741C151.046 21.2992 150.665 19.555 150.665 17.5415C150.665 15.5778 151.046 13.8543 151.808 12.3711C152.57 10.8879 153.643 9.73201 155.027 8.90341C156.419 8.07481 158.052 7.66051 159.924 7.66051C161.184 7.66051 162.356 7.86352 163.442 8.26953C164.535 8.66726 165.488 9.26799 166.3 10.0717C167.121 10.8755 167.759 11.8864 168.214 13.1044C168.67 14.3142 168.898 15.7311 168.898 17.3551V18.8093H152.778V15.5281H163.914C163.914 14.7657 163.748 14.0904 163.417 13.5021C163.085 12.9138 162.625 12.454 162.037 12.1225C161.457 11.7828 160.782 11.6129 160.011 11.6129C159.207 11.6129 158.495 11.7994 157.873 12.1722C157.26 12.5368 156.78 13.0298 156.432 13.6513C156.084 14.2644 155.905 14.948 155.897 15.7021V18.8217C155.897 19.7663 156.071 20.5825 156.419 21.2702C156.776 21.958 157.277 22.4883 157.923 22.8612C158.569 23.234 159.336 23.4205 160.222 23.4205C160.811 23.4205 161.349 23.3376 161.838 23.1719C162.327 23.0062 162.746 22.7576 163.094 22.4261C163.442 22.0947 163.707 21.6887 163.889 21.2081L168.786 21.5312C168.537 22.7079 168.028 23.7353 167.257 24.6136C166.495 25.4837 165.509 26.1631 164.299 26.652C163.098 27.1326 161.71 27.3729 160.135 27.3729Z" fill="#00DFC0"/>
</svg>
